<?xml version="1.0" encoding="UTF-8"?>
<svg width="306px" height="167px" viewBox="0 0 306 167" version="1.1" xmlns="http://www.w3.org/2000/svg" xmlns:xlink="http://www.w3.org/1999/xlink">
    <!-- Generator: Sketch 51.3 (57544) - http://www.bohemiancoding.com/sketch -->
    <title>Group 2</title>
    <desc>Created with Sketch.</desc>
    <defs></defs>
    <g id="Page-1" stroke="none" stroke-width="1" fill="none" fill-rule="evenodd">
        <g id="Artboard" transform="translate(-369.000000, -42.000000)" fill="#F63D44">
            <g id="Group-2" transform="translate(369.000000, 42.000000)">
                <path d="M164.434447,36.3016794 C159.369312,39.2632076 152.404887,39.5674893 145.398135,36.5279683 C139.724901,34.0849272 135.017592,29.8085067 132,24.9224245 C133.448453,26.1439451 135.138278,27.1216009 136.94879,27.9762259 C144.18476,31.4090062 151.41921,31.1739294 156.510392,27.9850138 C156.507136,27.9817184 156.504966,27.9795214 156.502795,27.9762259 C149.260531,22.3563526 143.10466,15.0261308 138.518146,9.04046041 C137.552113,8.06302427 136.827887,6.84128402 136.10366,5.74180568 C141.655991,10.8728511 150.46772,17.3473494 153.605347,19.1807287 C146.967599,12.0943716 141.052667,3.29876458 141.293606,3.54262929 C151.795052,14.293548 161.572597,20.4022493 161.572597,20.4022493 C161.896019,20.5867955 162.14564,20.7405841 162.346422,20.8778953 C162.558057,20.3330444 162.743645,19.7673222 162.899929,19.1807287 C164.589755,12.9500951 162.658991,5.86373804 158.433885,0 C168.210344,5.98621964 174.004807,17.225417 171.589995,26.6328829 C171.527047,26.886634 171.458673,27.1370896 171.384872,27.3831513 C171.41309,27.4172045 171.441308,27.4523562 171.469526,27.4886063 C176.296979,33.5973076 174.969646,40.0718059 174.366215,38.8502853 C171.747365,33.663217 166.899292,35.2494361 164.434556,36.3017892 L164.434447,36.3016794 Z" id="Shape" fill-rule="nonzero"></path>
                <polygon id="Path" points="0 167 44.9080635 111.983777 59.6374701 120.709152 126.156488 48 171.072376 92.7270613 197.956966 66.5370973 246.742013 125.234446 261.827429 111.983777 306 167 261.827429 132.375276 255.114106 132.375276 274.725929 167 197.956966 92.7270613 179.628342 107.5 227.889155 162.474706 129.664602 79.5261194 76.3855684 132.375276 92.2377744 151.749622 48.9363724 134.762884"></polygon>
            </g>
        </g>
    </g>
</svg>