<?xml version="1.0" encoding="UTF-8"?>
<svg width="768px" height="54px" viewBox="0 0 768 54" version="1.1" xmlns="http://www.w3.org/2000/svg" xmlns:xlink="http://www.w3.org/1999/xlink">
    <!-- Generator: Sketch 51.3 (57544) - http://www.bohemiancoding.com/sketch -->
    <title>Path 2</title>
    <desc>Created with Sketch.</desc>
    <defs></defs>
    <g id="Page-1" stroke="none" stroke-width="1" fill="none" fill-rule="evenodd">
        <g id="Artboard-2" transform="translate(0.000000, -1.000000)" fill="#FFFFFF">
            <polygon id="Path-2" points="0 24.4984457 9.58855622 27.7575172 20.5834088 19.3102483 25.9869049 19.3102483 31.8593349 13.0552748 38.759978 13.0552748 46.56694 16.0288544 60.7726279 13.0552748 71.0805711 7.71786973 104.252989 27.7575172 127.719765 19.3102483 141.063589 27.7575172 153.141149 27.7575172 167.074367 24.4984457 174.433906 22.2262596 177.256114 19.3102483 189.795437 26.1608776 198.346671 27.7575172 202.185619 30.2881732 210.656546 27.7575172 214.922841 26.1608776 221.715931 30.2881732 227.799166 27.7575172 243.998182 26.1608776 262.173317 16.0288544 284.032524 7.71786973 299.457987 9.47664046 305.283694 7.71786973 317.818715 9.47664046 322.001835 13.0552748 327.160109 7.71786973 344.976732 9.47664046 352.334837 9.47664046 359.820572 13.0552748 365.918147 13.0552748 372.755692 13.0552748 400.189047 5.67008258 433.183643 11.4222145 452.672367 3.67516429 460.393286 7.71786973 465.489896 9.47664046 480.16882 13.0552748 497.417559 9.47664046 503.277083 11.4222145 505.799575 9.47664046 510.911959 9.47664046 519.259557 7.71786973 529.393981 3.67516429 533.162661 3.67516429 540.221049 1 559.71551 1 573.632954 5.67008258 592.962498 13.0552748 597.922442 13.0552748 607.666823 16.0288544 641.68622 19.3102483 650.316835 19.3102483 675.680809 22.2262596 679.038231 19.3102483 688.132719 18.6550955 698.144941 22.2262596 703.038026 21.087987 707.388193 20.366651 710.368098 21.087987 713.995264 19.3102483 719.09727 19.8019528 725.005312 14.4396112 726.463822 15.2156416 726.463822 14.4396112 730.922388 18.6550955 740.112251 17.9011078 747.059109 15.2156416 752.892106 14.4396112 755.595457 13.0552748 768 19.8019528 768 55 0 55"></polygon>
        </g>
    </g>
</svg>